<svg width="24" height="24" viewBox="0 0 24 24" fill="none" xmlns="http://www.w3.org/2000/svg">
<path d="M12 0C8.8174 0 5.76516 1.26428 3.51472 3.51472C1.26428 5.76516 0 8.8174 0 12C0 15.1826 1.26428 18.2348 3.51472 20.4853C5.76516 22.7357 8.8174 24 12 24C15.1826 24 18.2348 22.7357 20.4853 20.4853C22.7357 18.2348 24 15.1826 24 12C24 8.8174 22.7357 5.76516 20.4853 3.51472C18.2348 1.26428 15.1826 0 12 0ZM9.426 7.12C10.1053 7.12411 10.7782 7.25291 11.411 7.5V8.681C10.7234 8.29891 9.94758 8.10376 9.161 8.115C8.67127 8.09872 8.18372 8.18728 7.731 8.37475C7.27828 8.56222 6.87085 8.84426 6.536 9.202C5.83407 10.0025 5.47114 11.0447 5.524 12.108C5.47166 13.1136 5.81029 14.1004 6.469 14.862C6.78463 15.2012 7.16982 15.4682 7.59819 15.6448C8.02657 15.8213 8.48803 15.9033 8.951 15.885C9.81526 15.9065 10.6684 15.6869 11.415 15.251L11.411 16.331C10.5947 16.7282 9.69325 16.9188 8.786 16.886C8.1866 16.9122 7.58852 16.8101 7.0318 16.5864C6.47509 16.3627 5.9726 16.0227 5.558 15.589C4.72416 14.6546 4.28913 13.431 4.346 12.18C4.31705 11.5092 4.42293 10.8394 4.65739 10.2102C4.89185 9.58103 5.25012 9.00528 5.711 8.517C6.16122 8.05616 6.70265 7.69433 7.30066 7.45464C7.89868 7.21495 8.54013 7.10268 9.184 7.125C9.22398 7.12323 9.26399 7.1219 9.304 7.121C9.34467 7.12055 9.38533 7.11955 9.426 7.12ZM15.289 7.275H16.125L15.57 9.927H17.231L17.798 7.275H18.608L18.053 9.927L19.785 9.923L19.635 10.62H17.91L17.498 12.6H19.35L19.174 13.298H17.358L16.778 15.923H15.948L16.515 13.298H14.865L14.31 15.923H13.5L14.055 13.298H12.315L12.446 12.6H14.194L14.595 10.624H12.769L12.907 9.927H14.733L15.289 7.275ZM15.431 10.62L15 12.6H16.673L17.096 10.62H15.431Z" fill="#239120"/>
</svg>
