<svg width="24" height="18" viewBox="0 0 24 18" fill="none" xmlns="http://www.w3.org/2000/svg">
<path d="M13.983 7.689H16.102C16.1512 7.689 16.1983 7.66954 16.2332 7.63488C16.268 7.60021 16.2878 7.55316 16.288 7.504V5.617C16.288 5.56767 16.2684 5.52036 16.2335 5.48548C16.1987 5.4506 16.1513 5.431 16.102 5.431H13.983C13.934 5.431 13.8869 5.45049 13.8522 5.48519C13.8175 5.51988 13.798 5.56694 13.798 5.616V7.504C13.798 7.606 13.881 7.689 13.983 7.689ZM11.029 2.259H13.147C13.1963 2.259 13.2437 2.2394 13.2785 2.20452C13.3134 2.16964 13.333 2.12233 13.333 2.073V0.185C13.3328 0.135843 13.313 0.0887899 13.2782 0.0541241C13.2433 0.0194583 13.1962 -7.10436e-07 13.147 0H11.029C10.98 0 10.9329 0.0194912 10.8982 0.0541854C10.8635 0.0888796 10.844 0.135935 10.844 0.185V2.073C10.844 2.175 10.926 2.259 11.029 2.259ZM11.029 4.974H13.147C13.1963 4.97374 13.2434 4.95406 13.2782 4.91923C13.3131 4.88441 13.3328 4.83725 13.333 4.788V2.901C13.3328 2.85184 13.313 2.80479 13.2782 2.77012C13.2433 2.73546 13.1962 2.716 13.147 2.716H11.029C10.98 2.716 10.9329 2.73549 10.8982 2.77019C10.8635 2.80488 10.844 2.85193 10.844 2.901V4.788C10.844 4.89 10.926 4.973 11.029 4.974ZM8.09902 4.974H10.219C10.268 4.97347 10.3148 4.95364 10.3492 4.91882C10.3837 4.88399 10.403 4.83699 10.403 4.788V2.901C10.403 2.85193 10.3835 2.80488 10.3488 2.77019C10.3141 2.73549 10.2671 2.716 10.218 2.716H8.10002C8.05095 2.716 8.0039 2.73549 7.9692 2.77019C7.93451 2.80488 7.91502 2.85193 7.91502 2.901V4.788C7.91502 4.89 7.99802 4.973 8.10002 4.974M5.13602 4.974H7.25502C7.30417 4.97374 7.35123 4.95402 7.38589 4.91917C7.42056 4.88432 7.44002 4.83716 7.44002 4.788V2.901C7.44002 2.85193 7.42053 2.80488 7.38583 2.77019C7.35114 2.73549 7.30408 2.716 7.25502 2.716H5.13602C5.08686 2.716 5.0397 2.73546 5.00485 2.77012C4.96999 2.80479 4.95028 2.85184 4.95002 2.901V4.788C4.95002 4.89 5.03402 4.973 5.13602 4.974ZM11.029 7.689H13.147C13.1962 7.689 13.2433 7.66954 13.2782 7.63488C13.313 7.60021 13.3328 7.55316 13.333 7.504V5.617C13.333 5.56767 13.3134 5.52036 13.2785 5.48548C13.2437 5.4506 13.1963 5.431 13.147 5.431H11.029C10.98 5.431 10.9329 5.45049 10.8982 5.48519C10.8635 5.51988 10.844 5.56694 10.844 5.616V7.504C10.844 7.606 10.926 7.689 11.029 7.689ZM8.09902 7.689H10.219C10.2679 7.68874 10.3147 7.66913 10.3492 7.63446C10.3837 7.5998 10.403 7.55289 10.403 7.504V5.617C10.4031 5.5927 10.3985 5.56862 10.3893 5.54613C10.3801 5.52363 10.3666 5.50316 10.3495 5.48589C10.3325 5.46862 10.3121 5.45488 10.2897 5.44546C10.2673 5.43605 10.2433 5.43113 10.219 5.431H8.09902C8.05013 5.43126 8.00333 5.45087 7.96885 5.48554C7.93437 5.5202 7.91502 5.56711 7.91502 5.616V7.504C7.91502 7.606 7.99802 7.689 8.10002 7.689M5.13602 7.689H7.25502C7.30408 7.689 7.35114 7.66951 7.38583 7.63482C7.42053 7.60012 7.44002 7.55306 7.44002 7.504V5.617C7.44015 5.5927 7.43549 5.56862 7.42632 5.54613C7.41714 5.52363 7.40363 5.50316 7.38654 5.48589C7.36945 5.46862 7.34913 5.45488 7.32674 5.44546C7.30434 5.43605 7.28031 5.43113 7.25602 5.431H5.13602C5.08669 5.431 5.03938 5.4506 5.0045 5.48548C4.96961 5.52036 4.95002 5.56767 4.95002 5.617V7.504C4.95002 7.606 5.03402 7.689 5.13602 7.689ZM2.21602 7.689H4.33602C4.38491 7.68874 4.43171 7.66913 4.46619 7.63446C4.50066 7.5998 4.52002 7.55289 4.52002 7.504V5.617C4.52015 5.5927 4.51549 5.56862 4.50632 5.54613C4.49714 5.52363 4.48363 5.50316 4.46654 5.48589C4.44945 5.46862 4.42913 5.45488 4.40674 5.44546C4.38434 5.43605 4.36031 5.43113 4.33602 5.431H2.21602C2.16713 5.43126 2.12033 5.45087 2.08585 5.48554C2.05137 5.5202 2.03202 5.56711 2.03202 5.616V7.504C2.03202 7.606 2.11302 7.689 2.21602 7.689ZM23.763 6.501C23.698 6.45 23.091 5.991 21.809 5.991C21.471 5.992 21.133 6.021 20.799 6.078C20.551 4.378 19.146 3.548 19.083 3.512L18.739 3.313L18.513 3.64C18.229 4.078 18.023 4.562 17.901 5.07C17.671 6.04 17.811 6.952 18.304 7.731C17.709 8.063 16.754 8.144 16.56 8.151H0.751017C0.552531 8.15126 0.362221 8.23009 0.221683 8.37025C0.0811454 8.51042 0.00180974 8.70052 0.00101703 8.899C-0.0175013 10.2838 0.217012 11.6604 0.693017 12.961C1.23802 14.389 2.04802 15.441 3.10302 16.085C4.28302 16.808 6.20302 17.222 8.37802 17.222C9.36102 17.225 10.341 17.136 11.308 16.956C12.6509 16.7093 13.943 16.2398 15.131 15.567C16.111 15 16.991 14.279 17.741 13.431C18.993 12.013 19.739 10.434 20.294 9.031H20.515C21.887 9.031 22.73 8.482 23.195 8.022C23.504 7.729 23.745 7.372 23.902 6.976L24 6.688L23.763 6.501Z" fill="#2496ED"/>
</svg>
