<svg width="24" height="9" viewBox="0 0 24 9" fill="none" xmlns="http://www.w3.org/2000/svg">
<path d="M24 1.241H21.532V8.806H20.107V1.241H17.645V0.0010004H24V1.241ZM17.148 8.806H12.327V0.0010004H16.957V1.241H13.752V3.735H16.705V4.969H13.752V7.573H17.148V8.806ZM10.44 8.806H8.882L4.78 2.334C4.67739 2.17292 4.59097 2.00209 4.522 1.824H4.486C4.518 2.013 4.534 2.416 4.534 3.034V8.806H3.157V0.0010004H4.816L8.781 6.321C8.948 6.582 9.056 6.763 9.104 6.861H9.128C9.088 6.628 9.068 6.232 9.068 5.676V0H10.44V8.806ZM1.737 8.113C1.737 8.22195 1.71452 8.32982 1.67083 8.43047C1.62715 8.53111 1.56312 8.62254 1.48242 8.69953C1.40171 8.77652 1.3059 8.83757 1.20048 8.87917C1.09505 8.92078 0.982072 8.94213 0.868001 8.942C0.753925 8.942 0.640968 8.92053 0.535589 8.8788C0.43021 8.83708 0.334476 8.77592 0.253861 8.69884C0.173247 8.62175 0.109332 8.53025 0.0657724 8.42955C0.022213 8.32886 -0.000136975 8.22095 6.31568e-07 8.112C0.000278106 7.89231 0.0918503 7.68171 0.254602 7.52646C0.417353 7.3712 0.637974 7.284 0.868001 7.284C0.982072 7.28387 1.09505 7.30522 1.20048 7.34683C1.3059 7.38843 1.40171 7.44948 1.48242 7.52647C1.56312 7.60346 1.62715 7.69489 1.67083 7.79553C1.71452 7.89618 1.737 8.00405 1.737 8.113Z" fill="#512BD4"/>
</svg>
