<svg width="11" height="24" viewBox="0 0 11 24" fill="none" xmlns="http://www.w3.org/2000/svg">
<path d="M10.5836 9.555C9.31957 3.975 6.33156 2.141 6.01056 1.44C5.73056 1.046 5.48057 0.486 5.27557 0C5.23957 0.495 5.22057 0.685 4.75257 1.184C4.02957 1.75 0.314565 4.866 0.0125649 11.204C-0.269435 17.116 4.28257 20.639 4.90057 21.088L4.97056 21.138C5.09926 22.0898 5.20928 23.0439 5.30056 24H5.78156C5.89556 22.968 6.06556 21.944 6.29156 20.93C6.70856 20.634 6.89557 20.467 7.14157 20.237C8.30652 19.1593 9.23235 17.8491 9.85919 16.3911C10.486 14.9332 10.7999 13.3599 10.7806 11.773C10.7906 10.959 10.6776 10.111 10.5836 9.555ZM5.24757 17.75C5.24757 17.75 5.24756 9.459 5.52256 9.46C5.73556 9.46 6.01256 20.155 6.01256 20.155C5.63156 20.11 5.24757 18.395 5.24757 17.75Z" fill="#47A248"/>
</svg>
