<svg width="22" height="24" viewBox="0 0 22 24" fill="none" xmlns="http://www.w3.org/2000/svg">
<path d="M3.68824 2.50516C3.68824 2.50516 3.60824 2.63216 3.68424 2.82016C3.73024 2.93616 3.87024 3.07616 4.02424 3.22416C4.02424 3.22416 5.63924 4.80016 5.83724 5.02816C6.73224 6.06116 7.12124 7.07816 7.15724 8.48116C7.17924 9.38116 7.00624 10.1732 6.58424 11.0942C5.82824 12.7432 4.23424 14.5622 1.77424 16.5842L2.13424 16.4642C2.36724 16.2912 2.68224 16.1052 3.42624 15.6982C5.13924 14.7622 7.06224 13.9002 9.42524 13.0122C12.8242 11.7352 18.4152 10.2362 21.5972 9.74916L21.9282 9.69816L21.8782 9.61816C21.5862 9.16616 21.3882 8.88716 21.1482 8.59116C20.4512 7.72816 19.6062 7.02416 18.5712 6.44516C17.1492 5.64816 15.3042 5.02916 12.9712 4.56516C12.243 4.42822 11.5126 4.3032 10.7802 4.19016C9.47024 3.98925 8.16218 3.77591 6.85624 3.55016C6.43124 3.47516 5.79624 3.36916 5.37524 3.27816C5.05058 3.20918 4.7298 3.12306 4.41424 3.02016C4.14624 2.91516 3.76924 2.81316 3.68824 2.50516ZM4.62424 3.41416C4.62724 3.41216 4.68724 3.43116 4.76124 3.45616C4.89724 3.50216 5.07724 3.55616 5.28724 3.61516C5.43324 3.65516 5.59424 3.69916 5.76624 3.74216C5.98424 3.79816 6.16524 3.84616 6.16724 3.84916C6.19124 3.87616 6.55824 5.04716 6.68324 5.49616C6.73124 5.66816 6.76724 5.81116 6.76424 5.81416C6.72939 5.7708 6.69922 5.72387 6.67424 5.67416C6.25024 4.92816 5.57724 4.16916 4.80024 3.55816C4.73983 3.51232 4.68113 3.46429 4.62424 3.41416ZM6.41424 3.90816C6.43224 3.90716 6.51324 3.92016 6.60924 3.94216C7.22824 4.07816 8.33424 4.29216 9.04424 4.41216C9.16324 4.43216 9.26024 4.45216 9.26024 4.45916C9.23127 4.48516 9.19814 4.50612 9.16224 4.52116C9.04324 4.58116 8.56024 4.87016 8.39924 4.97816C7.99624 5.24816 7.63324 5.53716 7.36924 5.79916C7.30521 5.86482 7.23953 5.92884 7.17224 5.99116C7.16924 5.99116 7.15024 5.92916 7.13124 5.85416C6.96143 5.24507 6.7441 4.65025 6.48124 4.07516C6.45484 4.02137 6.43115 3.96631 6.41024 3.91016C6.41024 3.90916 6.41024 3.90816 6.41424 3.90816ZM9.56124 4.50616C9.58124 4.51316 9.62124 4.63616 9.69024 4.91016C9.84962 5.55626 9.90132 6.22423 9.84324 6.88716L9.83124 6.92516L9.64424 6.86516C9.25624 6.74116 8.62424 6.55516 8.08224 6.40516C7.89316 6.35677 7.70631 6.30005 7.52224 6.23516C7.52224 6.21316 7.97124 5.76416 8.16424 5.59316C8.53324 5.26716 9.52624 4.49516 9.56124 4.50616ZM9.81124 4.54216C9.82224 4.53216 11.3152 4.79016 11.9932 4.92016C12.4992 5.01716 13.2302 5.17016 13.2742 5.18916C13.2962 5.19716 13.2202 5.23916 12.9772 5.34916C12.0172 5.78116 11.3052 6.16916 10.5972 6.64216C10.4112 6.76616 10.2562 6.86816 10.2532 6.86816C10.2492 6.86816 10.2472 6.76416 10.2472 6.63816C10.2472 5.94816 10.1082 5.25116 9.85624 4.66216C9.83754 4.62365 9.82247 4.58347 9.81124 4.54216ZM13.6712 5.30616C13.6822 5.31716 13.6332 5.61216 13.5912 5.78616C13.4592 6.32616 13.1092 7.13016 12.6772 7.88516C12.6319 7.97032 12.5811 8.05249 12.5252 8.13116C12.4492 8.09892 12.3759 8.06046 12.3062 8.01616C11.8842 7.76916 11.4062 7.53616 10.8812 7.31916C10.7873 7.28223 10.6946 7.24221 10.6032 7.19916C10.5792 7.17716 11.7462 6.40416 12.3652 6.03316C12.8602 5.73616 13.6572 5.29216 13.6712 5.30616ZM13.9472 5.34916C13.9802 5.34916 14.6422 5.52916 14.9842 5.63216C15.8372 5.88716 16.8212 6.24616 17.4592 6.53616L17.7242 6.65616L17.5372 6.69916C15.9762 7.05916 14.6372 7.47216 13.3492 7.99516C13.2422 8.03916 13.1492 8.07516 13.1422 8.07516C13.1604 8.01093 13.1855 7.94889 13.2172 7.89016C13.6052 7.06716 13.8552 6.20316 13.9202 5.47016C13.9262 5.40316 13.9382 5.34916 13.9472 5.34916ZM7.36724 6.86116C7.37724 6.85116 7.88124 6.96916 8.15624 7.04616C8.56924 7.16216 9.44824 7.45616 9.44824 7.47916C9.44824 7.48316 9.35124 7.56816 9.23324 7.66716C8.75824 8.06416 8.29924 8.48016 7.75024 9.01016C7.6514 9.10921 7.54865 9.20429 7.44224 9.29516C7.43524 9.29516 7.43224 9.27216 7.43624 9.24516C7.51924 8.63416 7.50124 7.85016 7.38624 7.05216C7.37489 6.98941 7.3682 6.9259 7.36624 6.86216L7.36724 6.86116ZM17.9772 6.87116C17.9842 6.87916 17.7432 7.25616 17.5932 7.47116C17.3732 7.78516 17.0562 8.19716 16.3322 9.10816L15.3782 10.3102C15.2911 10.4232 15.2014 10.5342 15.1092 10.6432C15.1062 10.6432 15.0592 10.5772 15.0062 10.4972C14.5975 9.88719 14.1023 9.33981 13.5362 8.87216C13.4476 8.79787 13.3575 8.72519 13.2662 8.65416C13.2393 8.63604 13.2144 8.61491 13.1922 8.59116C13.1922 8.58116 13.8092 8.31716 14.2802 8.12516C15.1927 7.75839 16.1195 7.42813 17.0582 7.13516C17.5002 7.00016 17.9702 6.86516 17.9772 6.87116ZM18.2552 6.94416C18.3281 6.9688 18.3976 7.00239 18.4622 7.04416C19.344 7.54931 20.1595 8.16199 20.8902 8.86816C21.0842 9.05816 21.5572 9.55116 21.5502 9.55516L21.1872 9.58416C19.6572 9.69916 17.7012 10.0242 15.8172 10.4772C15.6892 10.5072 15.5792 10.5332 15.5712 10.5332C15.5642 10.5332 15.7042 10.3932 15.8822 10.2212C16.9892 9.15816 17.4932 8.48716 18.0872 7.28716C18.1752 7.10916 18.2502 6.95416 18.2532 6.94516H18.2552V6.94416ZM10.1672 7.77416C10.2182 7.78416 10.6902 8.00416 11.0462 8.18216C11.3712 8.34516 11.8642 8.60816 11.8892 8.63116C11.8922 8.63416 11.7192 8.72416 11.5032 8.83216C10.8202 9.17416 10.2352 9.49616 9.62524 9.86916C9.45024 9.97616 9.30524 10.0632 9.30024 10.0632C9.28524 10.0632 9.29024 10.0502 9.38824 9.87216C9.72593 9.2423 9.97431 8.5685 10.1262 7.87016C10.1402 7.80816 10.1562 7.77016 10.1672 7.77316V7.77416ZM9.69224 7.85816C9.70224 7.86816 9.58024 8.31816 9.50224 8.55816C9.29095 9.18958 9.01094 9.79588 8.66724 10.3662L8.57724 10.5132L8.37424 10.3162C8.17672 10.1148 7.94856 9.94609 7.69824 9.81616C7.63629 9.78817 7.57732 9.754 7.52224 9.71416C7.52224 9.68416 8.14224 9.12116 8.62024 8.71616C8.96324 8.42616 9.68424 7.84916 9.69224 7.85816ZM12.5802 9.04616L12.7572 9.16116C13.1642 9.42516 13.6452 9.78016 14.0122 10.0852C14.2182 10.2572 14.6172 10.6152 14.6992 10.7012L14.7432 10.7482L14.4492 10.8302C12.946 11.2402 11.4613 11.7153 9.99924 12.2542C9.83224 12.3152 9.68924 12.3662 9.67924 12.3662C9.65824 12.3662 9.63724 12.3852 10.0122 12.0402C10.9722 11.1572 11.8192 10.1842 12.4522 9.23816L12.5802 9.04616ZM11.8212 9.23616C11.8302 9.24516 11.3292 9.94616 11.0322 10.3422C10.6762 10.8152 10.0422 11.6072 9.60624 12.1222C9.49491 12.2579 9.37952 12.3903 9.26024 12.5192C9.25024 12.5222 9.24524 12.4692 9.24424 12.3862C9.24424 11.9462 9.13224 11.4762 8.93624 11.0782C8.85324 10.9102 8.83924 10.8702 8.85624 10.8542C8.92424 10.7922 9.98324 10.1882 10.6502 9.83116C11.1092 9.58516 11.8132 9.22716 11.8212 9.23616ZM7.23124 10.3612C7.52184 10.5004 7.7945 10.6743 8.04324 10.8792C8.05124 10.8842 7.95624 10.9622 7.83324 11.0512C7.48824 11.3002 6.96324 11.6952 6.66024 11.9372C6.34024 12.1922 6.32924 12.2002 6.36524 12.1442C6.60524 11.7772 6.72524 11.5702 6.85124 11.3042C6.96424 11.0682 7.07524 10.7882 7.15524 10.5442C7.17175 10.4797 7.19669 10.418 7.23124 10.3612ZM8.45424 11.3212C8.47124 11.3182 8.49424 11.3492 8.59324 11.4962C8.80024 11.8062 8.95924 12.2182 9.00024 12.5542L9.00824 12.6272L8.51124 12.8192C7.62124 13.1652 6.80024 13.5062 6.24524 13.7592C6.09024 13.8312 5.81724 13.9612 5.63824 14.0512C5.45924 14.1412 5.31324 14.2112 5.31324 14.2072C5.31324 14.2032 5.42524 14.1182 5.56324 14.0192C6.65024 13.2292 7.58824 12.3652 8.29524 11.5002C8.37024 11.4082 8.43924 11.3282 8.44824 11.3222C8.45009 11.3211 8.45213 11.3204 8.45424 11.3202V11.3212ZM7.89024 11.4612C7.90524 11.4752 7.48924 11.9452 7.20924 12.2312C6.50924 12.9462 5.81324 13.5062 4.95324 14.0522C4.84524 14.1212 4.74724 14.1822 4.73324 14.1902C4.71024 14.2042 4.74124 14.1682 5.11924 13.7562C5.35724 13.4972 5.53924 13.2822 5.74724 13.0132C5.88324 12.8362 5.90924 12.8112 6.10924 12.6672C6.64624 12.2792 7.87624 11.4462 7.89024 11.4602V11.4612ZM8.88924 0.000158606C8.80924 -0.00984139 7.51824 0.455159 6.68924 0.791159C5.56624 1.24816 4.69324 1.68516 4.15524 2.06316C3.95524 2.20316 3.70324 2.45616 3.66724 2.55316C3.65305 2.5926 3.64594 2.63424 3.64624 2.67616L4.13424 3.13616L5.29224 3.50616L8.05124 4.00016L11.2042 4.54216L11.2362 4.27216L11.2082 4.26716L10.7932 4.20116L10.7082 4.05316C10.2797 3.29705 9.88688 2.52119 9.53124 1.72816C9.3237 1.25155 9.14668 0.762231 9.00124 0.263159C8.93324 0.0201586 8.92624 0.00515861 8.88924 0.000158606ZM8.82824 0.186159H8.83324C8.83624 0.189159 8.85024 0.291159 8.86524 0.411159C8.92724 0.919159 9.04124 1.41116 9.21924 1.94116C9.35324 2.34116 9.35524 2.31816 9.19524 2.27316C8.82524 2.17016 7.16324 1.88516 5.96124 1.71816C5.84189 1.70294 5.72287 1.68526 5.60424 1.66516C5.58924 1.65016 6.47124 1.18816 6.86224 1.00516C7.36324 0.773159 8.72924 0.205159 8.82824 0.186159ZM5.32624 1.81416L5.46724 1.86216C6.23924 2.12416 8.17324 2.49416 9.24224 2.58216C9.36224 2.59216 9.46424 2.60316 9.46724 2.60616C9.47024 2.60916 9.36724 2.66416 9.23924 2.72816C8.72424 2.98616 8.15624 3.30116 7.76324 3.54716C7.64824 3.61916 7.54324 3.67716 7.52824 3.67616C7.47142 3.66816 7.41474 3.65916 7.35824 3.64916L7.21424 3.62616L6.84924 3.27116C6.20824 2.65116 5.70824 2.17116 5.51424 1.99116L5.32624 1.81416ZM5.18324 1.92816L5.69424 2.56616C5.97624 2.91616 6.25824 3.26516 6.32024 3.34016C6.38324 3.41516 6.43124 3.47816 6.42824 3.48016C6.41424 3.49116 5.68824 3.35016 5.30324 3.26116C5.03229 3.20357 4.76431 3.13282 4.50024 3.04916L4.30024 2.98516L4.30124 2.93616C4.30424 2.69116 4.61324 2.32916 5.13724 1.96016L5.18324 1.92816ZM9.53524 2.79716C9.55024 2.79816 9.56724 2.82916 9.61224 2.92816C9.73624 3.20016 10.1222 3.93616 10.2152 4.07816C10.2452 4.12516 10.2952 4.12816 9.78224 4.04516C8.55224 3.84716 8.15324 3.78016 8.15324 3.77216C8.17829 3.75042 8.20622 3.73225 8.23624 3.71816C8.62861 3.49799 8.99927 3.24118 9.34324 2.95116L9.51824 2.80416C9.52424 2.79916 9.53024 2.79616 9.53524 2.79716ZM13.8442 11.2052L9.03624 12.7732L4.85624 14.6192L3.68624 14.9292C3.38824 15.2112 3.07324 15.4972 2.73824 15.7892C2.36824 16.1102 2.02224 16.4012 1.75824 16.6112C1.41283 16.8969 1.09387 17.2132 0.80524 17.5562C0.47324 17.9702 0.21324 18.4102 0.10124 18.7492C-0.0987597 19.3592 -0.00175965 19.9772 0.38624 20.5472C0.88124 21.2752 1.86624 22.0152 3.01124 22.5192C3.59624 22.7752 4.58124 23.1072 5.32124 23.2932C6.55424 23.6052 8.93524 23.9432 10.2472 23.9932C10.5132 24.0032 10.8672 24.0032 10.8842 23.9912C10.9122 23.9722 11.1172 23.5862 11.3542 23.1012C12.1602 21.4552 12.7432 19.9112 13.0572 18.5932C13.2472 17.7942 13.3952 16.7302 13.4912 15.4682C13.5182 15.1142 13.5282 13.9352 13.5072 13.5342C13.4823 12.9622 13.4212 12.3924 13.3242 11.8282C13.3116 11.7792 13.3075 11.7285 13.3122 11.6782C13.3262 11.6682 13.3712 11.6532 13.9622 11.4812L13.8442 11.2052ZM12.7442 11.8502C12.7892 11.8502 12.9042 12.9642 12.9352 13.6702C12.9412 13.8212 12.9402 13.9172 12.9312 13.9172C12.9032 13.9172 12.3162 13.5722 11.8992 13.3112C11.5057 13.0633 11.1183 12.8059 10.7372 12.5392C10.7022 12.5112 10.7062 12.5102 11.0032 12.4082C11.5082 12.2342 12.7072 11.8502 12.7452 11.8502H12.7442ZM10.2962 12.6532C10.3262 12.6532 10.4112 12.7002 10.6112 12.8252C11.3612 13.2952 12.3772 13.8602 12.8112 14.0502C12.9472 14.1102 12.9622 14.0862 12.6512 14.2972C11.9892 14.7472 11.1652 15.1892 10.1542 15.6392C10.045 15.6891 9.93468 15.7365 9.82324 15.7812C9.83062 15.7132 9.84503 15.6462 9.86624 15.5812C10.1112 14.6762 10.2492 13.7612 10.2532 13.0272C10.2552 12.6652 10.2552 12.6632 10.2902 12.6542H10.2962V12.6532ZM9.79224 12.8462C9.81324 12.8682 9.79824 13.6802 9.77224 13.9022C9.69609 14.5272 9.55603 15.1427 9.35424 15.7392C9.34024 15.7562 8.84324 15.2712 8.67824 15.0792C8.41697 14.7829 8.19235 14.4562 8.00924 14.1062C7.92724 13.9442 7.79524 13.6222 7.80724 13.6132C7.86324 13.5732 9.77824 12.8332 9.79224 12.8462ZM7.41724 13.7822C7.42124 13.7822 7.42524 13.7832 7.42724 13.7862C7.44941 13.8282 7.46814 13.8721 7.48324 13.9172C7.59924 14.2322 7.85924 14.6992 8.08524 14.9972C8.38137 15.3893 8.72273 15.7451 9.10224 16.0572C9.12524 16.0772 9.13224 16.0732 8.54024 16.2972C7.78237 16.5829 7.01746 16.8497 6.24624 17.0972C5.91924 17.2032 5.64224 17.2922 5.63124 17.2972C5.59824 17.3082 5.60824 17.2882 5.70424 17.1392C6.13124 16.4732 6.77724 15.1692 7.13924 14.2472C7.20124 14.0872 7.26124 13.9272 7.27224 13.8912C7.28724 13.8392 7.30324 13.8212 7.35224 13.7992C7.37233 13.7886 7.39456 13.7828 7.41724 13.7822ZM6.68924 14.0822C6.69924 14.0912 6.51524 14.4802 6.33324 14.8332C5.98224 15.5192 5.59424 16.1942 5.08024 17.0182L4.89824 17.3062C4.88024 17.3332 4.87224 17.3242 4.81624 17.2122C4.68551 16.9453 4.59132 16.6621 4.53624 16.3702C4.48482 16.0104 4.49157 15.6448 4.55624 15.2872C4.60324 15.0602 4.60124 15.0652 4.70824 15.0112C5.17024 14.7742 6.67424 14.0692 6.68924 14.0822ZM12.9572 14.3372V14.4912C12.9469 15.4935 12.8617 16.4936 12.7022 17.4832C12.0428 17.2929 11.4063 17.0306 10.8042 16.7012C10.4502 16.5072 9.93924 16.1942 9.95424 16.1792C9.95724 16.1752 10.1082 16.0962 10.2882 16.0022C11.0022 15.6322 11.6832 15.2322 12.2762 14.8362C12.4982 14.6882 12.8312 14.4472 12.9052 14.3822L12.9572 14.3372ZM3.94524 15.4102C3.96024 15.4102 3.95624 15.4382 3.93324 15.5712C3.91342 15.7004 3.89973 15.8306 3.89224 15.9612C3.86224 16.4932 3.94924 16.8852 4.21224 17.4212C4.28624 17.5712 4.34424 17.6952 4.34124 17.6972C4.31424 17.7202 1.91124 18.4232 1.15524 18.6302L0.72024 18.7502C0.69324 18.7582 0.69124 18.7522 0.70024 18.6902C0.78324 18.1572 1.19024 17.4582 1.75824 16.8702C2.13624 16.4802 2.43824 16.2482 2.95324 15.9552C3.28054 15.7674 3.61126 15.5857 3.94524 15.4102ZM9.61424 16.4252C9.61624 16.4232 9.70524 16.4702 9.81124 16.5322C10.5882 16.9812 11.6712 17.4022 12.5942 17.6132L12.6782 17.6332L12.5632 17.6962C12.0812 17.9642 10.4922 18.6252 8.86924 19.2332C8.69798 19.2971 8.52698 19.3618 8.35624 19.4272C8.33028 19.4399 8.30269 19.449 8.27424 19.4542C8.27424 19.4502 8.34124 19.3222 8.42324 19.1682C8.87924 18.3162 9.33324 17.2812 9.56724 16.5632C9.59024 16.4902 9.61124 16.4282 9.61424 16.4252ZM9.03624 16.6152C9.01892 16.6728 8.99788 16.7292 8.97324 16.7842C8.60435 17.6554 8.18325 18.5036 7.71224 19.3242C7.63227 19.4708 7.54824 19.6152 7.46024 19.7572C7.45524 19.7572 7.34624 19.6912 7.21624 19.6122C6.44624 19.1402 5.76424 18.5602 5.31624 17.9952L5.25224 17.9152L5.58424 17.8242C6.67252 17.533 7.73858 17.1644 8.77424 16.7212C8.91624 16.6612 9.03424 16.6122 9.03624 16.6152ZM12.6262 17.8682C12.6272 17.8682 12.6282 17.8692 12.6282 17.8712C12.6282 17.9512 12.4452 18.6992 12.2922 19.2412C12.1642 19.6942 12.0562 20.0492 11.8572 20.6782C11.8065 20.8479 11.7505 21.0159 11.6892 21.1822C10.6628 21.0067 9.65735 20.7248 8.68924 20.3412C8.4722 20.2562 8.259 20.1618 8.05024 20.0582C8.04424 20.0512 8.26324 19.9482 8.53624 19.8282C10.1912 19.1072 11.9052 18.2852 12.4912 17.9322C12.5322 17.9031 12.5779 17.8815 12.6262 17.8682ZM4.33924 18.1512C4.34824 18.1602 3.88524 18.8222 3.23924 19.7272L2.65224 20.5502C2.55524 20.6892 2.40724 20.9082 2.32324 21.0382L2.17024 21.2742L2.00824 21.1372C1.81724 20.9772 1.48324 20.6362 1.33124 20.4472C1.01924 20.0582 0.80824 19.6492 0.72424 19.2732C0.68624 19.0992 0.68424 19.0112 0.72124 19.0002C1.36505 18.8449 2.00972 18.6932 2.65524 18.5452L3.95524 18.2402C4.16424 18.1902 4.33724 18.1502 4.33924 18.1512ZM4.80424 18.3292L4.92124 18.4602C5.40989 19.0149 5.9862 19.4859 6.62724 19.8542C6.74224 19.9202 6.82924 19.9782 6.82224 19.9822C5.38308 20.5039 3.9397 21.0139 2.49224 21.5122C2.46745 21.4974 2.44342 21.4814 2.42024 21.4642L2.35324 21.4162L2.45824 21.2642C2.79824 20.7712 3.22624 20.2292 4.16324 19.1022L4.80424 18.3292ZM7.70424 20.4022C7.70724 20.3992 7.86924 20.4562 8.06624 20.5302C8.53924 20.7072 8.91024 20.8222 9.41324 20.9482C10.0302 21.1032 10.9232 21.2582 11.4512 21.3022C11.5312 21.3082 11.5732 21.3182 11.5612 21.3262C11.5362 21.3422 11.0012 21.5202 10.6082 21.6442C9.06719 22.1129 7.52179 22.5673 5.97224 23.0072C5.93724 23.0142 5.81524 22.9822 5.81524 22.9672C5.81524 22.9582 5.90224 22.8482 6.00824 22.7212C6.537 22.088 7.02978 21.4256 7.48424 20.7372C7.55718 20.6252 7.63051 20.5136 7.70424 20.4022ZM7.06224 20.4202C7.06724 20.4252 6.80924 20.8382 6.35624 21.5522C6.16424 21.8532 5.94724 22.1972 5.87324 22.3142C5.79824 22.4322 5.68924 22.6122 5.63124 22.7142L5.52424 22.8992L5.47024 22.8852C5.34024 22.8502 4.42124 22.5252 4.17924 22.4292C3.87824 22.3092 3.56424 22.1652 3.33324 22.0402C3.04424 21.8842 2.67824 21.6522 2.70624 21.6432L3.81124 21.3412C5.40324 20.9072 6.28424 20.6582 6.86124 20.4772C6.97024 20.4442 7.06124 20.4182 7.06224 20.4202ZM11.5852 21.4812H11.5912C11.6062 21.5192 11.0162 23.1512 10.8012 23.6692C10.7522 23.7852 10.7352 23.8142 10.7092 23.8122C10.2307 23.7517 9.75302 23.685 9.27624 23.6122C8.37024 23.4742 6.85324 23.2092 6.47024 23.1222L6.38124 23.1022L6.92424 22.9802C8.08824 22.7182 8.64724 22.5772 9.21424 22.4032C9.94509 22.1782 10.6595 21.9029 11.3522 21.5792C11.4652 21.5272 11.5622 21.4862 11.5852 21.4812Z" fill="#CC2927"/>
</svg>
