<svg width="22" height="24" viewBox="0 0 22 24" fill="none" xmlns="http://www.w3.org/2000/svg">
<path d="M10.64 24.0002C10.319 24.0002 9.999 23.9163 9.718 23.7533L6.782 22.0163C6.344 21.7713 6.558 21.6842 6.702 21.6332C7.287 21.4302 7.405 21.3832 8.03 21.0292C8.095 20.9922 8.181 21.0062 8.248 21.0462L10.504 22.3853C10.586 22.4303 10.701 22.4303 10.776 22.3853L19.571 17.3092C19.653 17.2622 19.705 17.1682 19.705 17.0712V6.92125C19.705 6.82225 19.652 6.72925 19.568 6.67925L10.777 1.60725C10.696 1.56025 10.588 1.56025 10.506 1.60725L1.717 6.68025C1.632 6.72925 1.578 6.82525 1.578 6.92125V17.0712C1.578 17.1682 1.632 17.2602 1.717 17.3062L4.126 18.6982C5.433 19.3522 6.234 18.5823 6.234 17.8083V7.78725C6.234 7.64525 6.348 7.53425 6.49 7.53425H7.605C7.744 7.53425 7.86 7.64625 7.86 7.78725V17.8083C7.86 19.5533 6.91 20.5532 5.256 20.5532C4.748 20.5532 4.347 20.5533 3.23 20.0023L0.922 18.6752C0.352 18.3462 0 17.7302 0 17.0712V6.92125C0 6.26225 0.353 5.64625 0.922 5.31825L9.717 0.23625C10.274 -0.07875 11.013 -0.07875 11.565 0.23625L20.359 5.31825C20.929 5.64725 21.283 6.26225 21.283 6.92125V17.0712C21.283 17.7302 20.929 18.3442 20.359 18.6752L11.565 23.7533C11.285 23.9163 10.966 24.0002 10.64 24.0002ZM17.741 13.9932C17.741 12.0932 16.457 11.5872 13.754 11.2302C11.023 10.8692 10.745 10.6823 10.745 10.0433C10.745 9.51525 10.98 8.81025 13.003 8.81025C14.81 8.81025 15.476 9.19925 15.75 10.4172C15.774 10.5322 15.879 10.6163 15.997 10.6163H17.138C17.209 10.6163 17.276 10.5852 17.324 10.5352C17.372 10.4812 17.398 10.4122 17.391 10.3392C17.214 8.24125 15.82 7.26325 13.003 7.26325C10.495 7.26325 8.999 8.32125 8.999 10.0962C8.999 12.0212 10.487 12.5533 12.894 12.7913C15.774 13.0733 15.997 13.4943 15.997 14.0603C15.997 15.0433 15.208 15.4622 13.355 15.4622C11.028 15.4622 10.516 14.8783 10.344 13.7203C10.324 13.5963 10.218 13.5052 10.091 13.5052H8.954C8.813 13.5052 8.7 13.6173 8.7 13.7583C8.7 15.2403 9.506 17.0063 13.355 17.0063C16.143 17.0073 17.741 15.9102 17.741 13.9932Z" fill="#339933"/>
</svg>
